<svg xmlns="http://www.w3.org/2000/svg" viewBox="0 0 8 25" version="1.1" id="svg10"><g id="Welcome" stroke="none" stroke-width="1" fill="none" fill-rule="evenodd" transform="rotate(-90 12.45172 12.43886)"><g id="👋-Hello!" transform="translate(-1072 -1191)" fill="#31383c"><g id="Icon-Kit" transform="translate(1072 473)"><g id="Shape" transform="translate(.12676 710)"><path d="m 11.292893,0.29289322 c 0.390524,-0.39052429 1.02369,-0.39052429 1.414214,0 v 0 l 3,2.99999998 c 0.390524,0.3905243 0.390524,1.0236893 0,1.4142136 -0.390524,0.3905243 -1.02369,0.3905243 -1.414214,0 v 0 L 13,3.414 V 23 c 0,0.512836 -0.38604,0.935507 -0.883379,0.993272 L 12,24 c -0.552285,0 -1,-0.447715 -1,-1 V 23 3.414 L 9.7071068,4.7071068 c -0.360484,0.3604839 -0.927715,0.3882135 -1.3200062,0.083189 l -0.094207,-0.083189 c -0.3905243,-0.3905243 -0.3905243,-1.0236893 0,-1.4142136 v 0 z" transform="rotate(-90 12 12)" id="path4"/></g></g></g></g></svg>
