<?xml version="1.0" encoding="UTF-8"?>
<svg width="25px" height="8px" viewBox="0 0 25 8" version="1.1" xmlns="http://www.w3.org/2000/svg"
     xmlns:xlink="http://www.w3.org/1999/xlink">
    <title>853ABE48-F92F-4711-B731-DD8B92FDF5AE@1.00x</title>
    <g id="Welcome" stroke="none" stroke-width="1" fill="none" fill-rule="evenodd">
        <g id="👋-Hello!" transform="translate(-1072.000000, -1191.000000)" fill="#31383C">
            <g id="Icon-Kit" transform="translate(1072.000000, 473.000000)">
                <g id="Shape" transform="translate(0.126761, 710.000000)">
                    <path
                        d="M11.2928932,0.292893219 C11.6834175,-0.0976310729 12.3165825,-0.0976310729 12.7071068,0.292893219 L12.7071068,0.292893219 L15.7071068,3.29289322 C16.0976311,3.68341751 16.0976311,4.31658249 15.7071068,4.70710678 C15.3165825,5.09763107 14.6834175,5.09763107 14.2928932,4.70710678 L14.2928932,4.70710678 L13,3.414 L13,23 C13,23.5128358 12.6139598,23.9355072 12.1166211,23.9932723 L12,24 C11.4477153,24 11,23.5522847 11,23 L11,23 L11,3.414 L9.70710678,4.70710678 C9.34662282,5.06759074 8.77939176,5.09532028 8.38710056,4.79029539 L8.29289322,4.70710678 C7.90236893,4.31658249 7.90236893,3.68341751 8.29289322,3.29289322 L8.29289322,3.29289322 Z"
                        transform="translate(12.000000, 12.000000) rotate(-90.000000) translate(-12.000000, -12.000000) "></path>
                </g>
            </g>
        </g>
    </g>
</svg>
