<?xml version="1.0" encoding="UTF-8"?>
<svg width="32" height="20" xmlns="http://www.w3.org/2000/svg">
    <path
        d="M7.92 17.24c1.264 0 2.384-.196 3.36-.588.976-.392 1.736-.96 2.28-1.704.544-.744.816-1.636.816-2.676 0-1.104-.34-2.004-1.02-2.7-.68-.696-1.804-1.22-3.372-1.572l-2.952-.672c-.816-.192-1.392-.436-1.728-.732A1.4 1.4 0 014.8 5.504c0-.352.1-.672.3-.96.2-.288.52-.52.96-.696.44-.176.996-.264 1.668-.264 1.024 0 1.924.196 2.7.588.776.392 1.492 1.004 2.148 1.836l1.848-2.136a7.427 7.427 0 00-2.784-2.208C10.552 1.168 9.288.92 7.848.92c-1.36 0-2.524.22-3.492.66-.968.44-1.708 1.036-2.22 1.788a4.416 4.416 0 00-.768 2.544c0 .784.172 1.46.516 2.028.344.568.848 1.032 1.512 1.392.664.36 1.46.652 2.388.876l3.216.72c.752.16 1.268.388 1.548.684.28.296.42.652.42 1.068 0 .4-.116.74-.348 1.02-.232.28-.576.496-1.032.648-.456.152-1.012.228-1.668.228a6.898 6.898 0 01-4.056-1.296c-.544-.4-1-.856-1.368-1.368L.624 14.144a7.31 7.31 0 001.8 1.608 9.19 9.19 0 002.46 1.092c.92.264 1.932.396 3.036.396zM20.652 17v-6.864h4.536l.12-.072.038-.001L29.94 17h1.416l-4.637-7.054.066-.011c.823-.156 1.53-.45 2.122-.885l.193-.15c.944-.776 1.416-1.86 1.416-3.252 0-1.392-.468-2.488-1.404-3.288-.936-.8-2.196-1.2-3.78-1.2h-5.88V17h1.2zm4.656-7.992h-4.656V2.264h4.656c1.28 0 2.26.292 2.94.876.68.584 1.02 1.42 1.02 2.508s-.34 1.92-1.02 2.496c-.68.576-1.66.864-2.94.864z"
        fill="#26262F" fill-rule="nonzero"/>
</svg>
