<?xml version="1.0" encoding="UTF-8"?>
<svg width="172" height="18" xmlns="http://www.w3.org/2000/svg">
    <path
        d="M8.58 17.76c1.37 0 2.583-.212 3.64-.637 1.057-.425 1.88-1.04 2.47-1.846.59-.806.884-1.772.884-2.899 0-1.196-.368-2.171-1.105-2.925s-1.954-1.322-3.653-1.703l-3.198-.728c-.884-.208-1.508-.472-1.872-.793A1.516 1.516 0 015.2 5.046c0-.381.108-.728.325-1.04.217-.312.563-.563 1.04-.754.477-.19 1.079-.286 1.807-.286 1.11 0 2.084.212 2.925.637.84.425 1.616 1.088 2.327 1.989l2.002-2.314A8.046 8.046 0 0012.61.886C11.431.349 10.062.08 8.502.08c-1.473 0-2.734.238-3.783.715s-1.85 1.122-2.405 1.937c-.555.815-.832 1.733-.832 2.756 0 .85.186 1.582.559 2.197.373.615.919 1.118 1.638 1.508.72.39 1.582.706 2.587.949l3.484.78c.815.173 1.374.42 1.677.741.303.32.455.706.455 1.157 0 .433-.126.802-.377 1.105-.251.303-.624.537-1.118.702-.494.165-1.096.247-1.807.247a7.473 7.473 0 01-2.379-.377 7.237 7.237 0 01-2.015-1.027 6.676 6.676 0 01-1.482-1.482L.676 14.406a7.92 7.92 0 001.95 1.742c.78.503 1.668.897 2.665 1.183.997.286 2.093.429 3.289.429zm16.588-.26v-7.228h7.566V17.5h3.588V.34h-3.588v7.047h-7.566V.34H21.58V17.5h3.588zm25.636.26c1.699 0 3.163-.355 4.394-1.066 1.23-.71 2.18-1.725 2.847-3.042.667-1.317 1.001-2.895 1.001-4.732 0-1.837-.334-3.415-1.001-4.732-.667-1.317-1.616-2.331-2.847-3.042C53.968.436 52.503.08 50.804.08c-1.699 0-3.168.355-4.407 1.066-1.24.71-2.193 1.725-2.86 3.042-.667 1.317-1.001 2.895-1.001 4.732 0 1.837.334 3.415 1.001 4.732.667 1.317 1.62 2.331 2.86 3.042 1.24.71 2.708 1.066 4.407 1.066zm0-2.938c-.953 0-1.772-.225-2.457-.676-.685-.45-1.205-1.118-1.56-2.002-.355-.884-.533-1.959-.533-3.224 0-1.265.178-2.34.533-3.224.355-.884.875-1.551 1.56-2.002.685-.45 1.504-.676 2.457-.676.953 0 1.768.225 2.444.676.676.45 1.192 1.118 1.547 2.002.355.884.533 1.959.533 3.224 0 1.265-.178 2.34-.533 3.224-.355.884-.871 1.551-1.547 2.002-.676.45-1.49.676-2.444.676zM72.306 17.5l2.366-9.36.806-4.056h.052l.806 4.056 2.392 9.36h4.03L87.75.34h-3.666L80.73 14.51 77.246.34h-3.432l-3.432 14.17L67.002.34H63.18l4.992 17.16h4.134zm22.568 0v-7.436h4.914l.13-.078.042-.001 4.976 7.515h1.534l-5.024-7.642.072-.012c.891-.168 1.658-.488 2.299-.958l.209-.163c1.023-.84 1.534-2.015 1.534-3.523s-.507-2.695-1.521-3.562c-1.014-.867-2.379-1.3-4.095-1.3h-6.37V17.5h1.3zm5.044-8.658h-5.044V1.536h5.044c1.387 0 2.448.316 3.185.949.737.633 1.105 1.538 1.105 2.717s-.368 2.08-1.105 2.704c-.737.624-1.798.936-3.185.936zm19.63 8.918c1.63 0 3.033-.36 4.212-1.079 1.179-.72 2.089-1.738 2.73-3.055.641-1.317.962-2.886.962-4.706 0-1.82-.32-3.389-.962-4.706-.641-1.317-1.551-2.336-2.73-3.055-1.179-.72-2.583-1.079-4.212-1.079-1.612 0-3.012.36-4.199 1.079-1.187.72-2.102 1.738-2.743 3.055-.641 1.317-.962 2.886-.962 4.706 0 1.82.32 3.389.962 4.706.641 1.317 1.556 2.336 2.743 3.055 1.187.72 2.587 1.079 4.199 1.079zm0-1.196c-1.335 0-2.492-.308-3.471-.923-.98-.615-1.733-1.495-2.262-2.639-.529-1.144-.793-2.505-.793-4.082s.264-2.938.793-4.082c.529-1.144 1.283-2.024 2.262-2.639.98-.615 2.136-.923 3.471-.923 1.352 0 2.513.308 3.484.923.97.615 1.725 1.495 2.262 2.639.537 1.144.806 2.505.806 4.082s-.269 2.938-.806 4.082c-.537 1.144-1.291 2.024-2.262 2.639-.97.615-2.132.923-3.484.923zm21.632 1.196c1.63 0 3.033-.36 4.212-1.079 1.179-.72 2.089-1.738 2.73-3.055.641-1.317.962-2.886.962-4.706 0-1.82-.32-3.389-.962-4.706-.641-1.317-1.551-2.336-2.73-3.055C144.213.439 142.809.08 141.18.08c-1.612 0-3.012.36-4.199 1.079-1.187.72-2.102 1.738-2.743 3.055-.641 1.317-.962 2.886-.962 4.706 0 1.82.32 3.389.962 4.706.641 1.317 1.556 2.336 2.743 3.055 1.187.72 2.587 1.079 4.199 1.079zm0-1.196c-1.335 0-2.492-.308-3.471-.923-.98-.615-1.733-1.495-2.262-2.639-.529-1.144-.793-2.505-.793-4.082s.264-2.938.793-4.082c.529-1.144 1.283-2.024 2.262-2.639.98-.615 2.136-.923 3.471-.923 1.352 0 2.513.308 3.484.923.97.615 1.725 1.495 2.262 2.639.537 1.144.806 2.505.806 4.082s-.269 2.938-.806 4.082c-.537 1.144-1.291 2.024-2.262 2.639-.97.615-2.132.923-3.484.923zm16.068.936V4.708l-.156-3.12h.026l6.266 15.912h1.196l6.266-15.912h.026l-.156 3.12V17.5h1.248V.34h-1.95l-5.174 13.026-.832 2.6h-.026l-.858-2.626-5.174-13H156V17.5h1.248z"
        fill="#FFF" fill-rule="nonzero"/>
</svg>
