<?xml version="1.0" encoding="UTF-8"?>
<svg width="24px" height="24px" viewBox="0 0 24 24" version="1.1" xmlns="http://www.w3.org/2000/svg" xmlns:xlink="http://www.w3.org/1999/xlink">
    <title>88A0AB48-D030-4EE6-BF58-A5431C037455@1x</title>
    <g id="Symbols" stroke="none" stroke-width="1" fill="none" fill-rule="evenodd">
        <g id="globe" fill="#31383C" transform="translate(1.000000, 1.000000)">
            <path d="M11,0.25 C5.06293894,0.25 0.25,5.06293894 0.25,11 C0.25,16.9370611 5.06293894,21.75 11,21.75 C16.9370611,21.75 21.75,16.9370611 21.75,11 C21.75,5.06293894 16.9370611,0.25 11,0.25 Z M11,1.75 C16.1086339,1.75 20.25,5.89136606 20.25,11 C20.25,16.1086339 16.1086339,20.25 11,20.25 C5.89136606,20.25 1.75,16.1086339 1.75,11 C1.75,5.89136606 5.89136606,1.75 11,1.75 Z" id="Oval"></path>
            <path d="M21,10.25 C21.4142136,10.25 21.75,10.5857864 21.75,11 C21.75,11.3796958 21.4678461,11.693491 21.1017706,11.7431534 L21,11.75 L1,11.75 C0.585786438,11.75 0.25,11.4142136 0.25,11 C0.25,10.6203042 0.532153882,10.306509 0.898229443,10.2568466 L1,10.25 L21,10.25 Z" id="Path"></path>
            <path d="M10.4462411,0.494182727 C7.82234897,3.36676861 6.33119657,7.09464961 6.2501627,10.9843788 C6.33119657,14.9053504 7.82234897,18.6332314 10.4462411,21.5058173 C10.7436313,21.8313942 11.2563687,21.8313942 11.5537589,21.5058173 C14.177651,18.6332314 15.6688034,14.9053504 15.7498373,11.0156212 C15.6688034,7.09464961 14.177651,3.36676861 11.5537589,0.494182727 C11.2563687,0.168605758 10.7436313,0.168605758 10.4462411,0.494182727 Z M11,2.15 L11.2007533,2.40171199 C13.1095262,4.86274433 14.1848644,7.88121844 14.2501627,11.0156212 L14.2367526,11.4034414 C14.0938059,14.3725723 13.029994,17.2401701 11.2007533,19.5983309 L10.999,19.849 L10.7992467,19.598288 C8.89047385,17.1372557 7.81513562,14.1187816 7.7498373,10.9843788 C7.81513562,7.87774706 8.89047385,4.86235862 10.7992467,2.40166913 L11,2.15 Z" id="Path"></path>
        </g>
    </g>
</svg>