<svg width="151" height="14" xmlns="http://www.w3.org/2000/svg">
    <path d="M5.76 13.8c2.13 0 3.76-.6 4.9-1.77 1.13-1.17 1.7-2.85 1.7-5.03s-.57-3.86-1.7-5.03C9.51.79 7.88.2 5.75.2H0v13.58h5.76zm-.35-2.68H3.54V2.88h1.87c1.14 0 1.98.35 2.52 1.03.53.69.8 1.72.8 3.09 0 1.37-.27 2.4-.8 3.09-.54.68-1.38 1.03-2.52 1.03zm23.65 2.67v-2.73h-7.3V8.28h5.6V5.7h-5.6V2.94h7.03V.21H18.21v13.58h10.85zm8.72 0V7.56l-.1-4.18h.04l3.36 10.41h2.86L47.3 3.38h.04l-.1 4.18v6.23h3.12V.21h-4.84L43.4 7.14l-.78 2.87h-.04l-.76-2.89L39.68.21h-5.05v13.58h3.15zM62.9 14c1.38 0 2.56-.28 3.55-.83a5.6 5.6 0 002.3-2.41c.54-1.05.8-2.3.8-3.76 0-1.45-.26-2.7-.8-3.76a5.6 5.6 0 00-2.3-2.4C65.44.27 64.27 0 62.9 0c-1.37 0-2.56.28-3.56.83a5.59 5.59 0 00-2.3 2.41 8.18 8.18 0 00-.8 3.76c0 1.45.26 2.7.8 3.76a5.59 5.59 0 002.3 2.4c1 .56 2.2.84 3.56.84zm0-2.78c-.98 0-1.74-.36-2.26-1.07A5.3 5.3 0 0159.85 7c0-1.39.26-2.44.78-3.15a2.63 2.63 0 012.26-1.07c1 0 1.74.36 2.26 1.07.51.71.77 1.76.77 3.15s-.26 2.44-.77 3.15a2.6 2.6 0 01-2.26 1.07zM80.45 14c1 0 1.89-.15 2.66-.46.78-.31 1.38-.75 1.8-1.31.43-.56.64-1.2.64-1.94 0-1.01-.37-1.8-1.1-2.38-.75-.58-2-1.02-3.78-1.32-1.1-.2-1.96-.41-2.58-.65a2.96 2.96 0 01-1.33-.88c-.26-.34-.39-.77-.39-1.3s.16-1 .46-1.43c.31-.43.76-.77 1.35-1.01a5.36 5.36 0 012.08-.37c1.11 0 2 .22 2.69.66.68.44 1.19 1.14 1.53 2.12l.89-.72C84.5 1 82.79 0 80.24 0c-1 0-1.88.17-2.62.53-.75.34-1.33.82-1.73 1.4-.4.6-.61 1.24-.61 1.94a3 3 0 00.48 1.75c.33.47.86.86 1.6 1.17.74.32 1.75.59 3.03.8a8.4 8.4 0 013.18 1.04 2 2 0 01.91 1.73c0 .83-.37 1.5-1.12 1.97-.75.48-1.71.72-2.9.72a5.74 5.74 0 01-3.07-.77 3.71 3.71 0 01-1.66-2.23l-.9.7a4.36 4.36 0 002 2.4 7.1 7.1 0 003.62.85zm15.45-.2V1.14h4.96V.21H89.91v.94h4.96V13.8h1.03zm15.66.2a6.3 6.3 0 003.33-.85 5.63 5.63 0 002.17-2.43c.5-1.05.76-2.3.76-3.72 0-1.43-.25-2.67-.76-3.72a5.63 5.63 0 00-2.17-2.43 6.3 6.3 0 00-3.33-.85 6.3 6.3 0 00-3.32.85 5.63 5.63 0 00-2.18 2.43A8.45 8.45 0 00105.3 7c0 1.43.26 2.67.76 3.72a5.63 5.63 0 002.18 2.43 6.3 6.3 0 003.32.85zm0-.95a5.06 5.06 0 01-2.75-.73 4.74 4.74 0 01-1.79-2.1A7.67 7.67 0 01106.4 7c0-1.24.21-2.3.63-3.22a4.74 4.74 0 011.8-2.1c.77-.49 1.68-.73 2.74-.73a4.71 4.71 0 014.56 2.83c.42.91.63 1.98.63 3.22 0 1.24-.21 2.3-.63 3.22a4.71 4.71 0 01-4.56 2.83zm14.14.74V7.91h4.07l3.9 5.88h1.2l-3.94-6c1-.2 1.79-.62 2.36-1.27.58-.66.87-1.48.87-2.46 0-1.2-.4-2.14-1.2-2.82A4.82 4.82 0 00129.7.2h-5.04v13.58h1.03zm4-6.85h-4V1.15h4c1.09 0 1.93.25 2.51.75.59.5.88 1.22.88 2.16 0 .93-.3 1.64-.88 2.14-.58.5-1.42.74-2.52.74zm21.19 6.85v-.94h-8.59V7.37h6.53V6.4h-6.53V1.15h8.26V.21h-9.29v13.58h9.62z" fill="#26262F" fill-rule="nonzero"/>
</svg>
